<svg width="830" height="592" viewBox="0 0 830 592" fill="none" xmlns="http://www.w3.org/2000/svg">
<g clip-path="url(#clip0_204_12973)">
<path opacity="0.1" d="M243.57 26H172.43C168.327 26 165 29.3265 165 33.43V44.57C165 48.6735 168.327 52 172.43 52H243.57C247.673 52 251 48.6735 251 44.57V33.43C251 29.3265 247.673 26 243.57 26Z" fill="#6C63FF"/>
<path opacity="0.1" d="M333.57 52H262.43C258.327 52 255 55.3265 255 59.43V70.57C255 74.6735 258.327 78 262.43 78H333.57C337.673 78 341 74.6735 341 70.57V59.43C341 55.3265 337.673 52 333.57 52Z" fill="#6C63FF"/>
<path opacity="0.1" d="M333.57 13H262.43C258.327 13 255 16.3265 255 20.43V31.57C255 35.6735 258.327 39 262.43 39H333.57C337.673 39 341 35.6735 341 31.57V20.43C341 16.3265 337.673 13 333.57 13Z" fill="#6C63FF"/>
<path opacity="0.1" d="M433.57 0H362.43C358.327 0 355 3.32652 355 7.43V18.57C355 22.6735 358.327 26 362.43 26H433.57C437.673 26 441 22.6735 441 18.57V7.43C441 3.32652 437.673 0 433.57 0Z" fill="#6C63FF"/>
<path opacity="0.1" d="M523.57 26H452.43C448.326 26 445 29.3265 445 33.43V44.57C445 48.6735 448.326 52 452.43 52H523.57C527.673 52 531 48.6735 531 44.57V33.43C531 29.3265 527.673 26 523.57 26Z" fill="#6C63FF"/>
<path opacity="0.1" d="M613.57 52H542.43C538.326 52 535 55.3265 535 59.43V70.57C535 74.6735 538.326 78 542.43 78H613.57C617.673 78 621 74.6735 621 70.57V59.43C621 55.3265 617.673 52 613.57 52Z" fill="#6C63FF"/>
<path opacity="0.1" d="M613.57 13H542.43C538.326 13 535 16.3265 535 20.43V31.57C535 35.6735 538.326 39 542.43 39H613.57C617.673 39 621 35.6735 621 31.57V20.43C621 16.3265 617.673 13 613.57 13Z" fill="#6C63FF"/>
<path opacity="0.1" d="M153.57 333H82.43C78.3265 333 75 336.327 75 340.43V351.57C75 355.673 78.3265 359 82.43 359H153.57C157.673 359 161 355.673 161 351.57V340.43C161 336.327 157.673 333 153.57 333Z" fill="#6C63FF"/>
<path opacity="0.1" d="M433.57 333H362.43C358.327 333 355 336.327 355 340.43V351.57C355 355.673 358.327 359 362.43 359H433.57C437.673 359 441 355.673 441 351.57V340.43C441 336.327 437.673 333 433.57 333Z" fill="#6C63FF"/>
<path opacity="0.1" d="M613.57 385H542.43C538.326 385 535 388.327 535 392.43V403.57C535 407.673 538.326 411 542.43 411H613.57C617.673 411 621 407.673 621 403.57V392.43C621 388.327 617.673 385 613.57 385Z" fill="#6C63FF"/>
<path d="M721.79 9H7.21C3.22803 9 0 12.228 0 16.21V366.79C0 370.772 3.22803 374 7.21 374H721.79C725.772 374 729 370.772 729 366.79V16.21C729 12.228 725.772 9 721.79 9Z" fill="#3F3D56"/>
<path d="M713.756 16.923H16.843C12.861 16.923 9.633 20.151 9.633 24.133V358.867C9.633 362.849 12.861 366.077 16.843 366.077H713.756C717.738 366.077 720.966 362.849 720.966 358.867V24.133C720.966 20.151 717.738 16.923 713.756 16.923Z" fill="white"/>
<path opacity="0.1" d="M0.000976562 352H729.001V366.79C729.001 368.702 728.241 370.536 726.889 371.888C725.537 373.24 723.703 374 721.791 374H7.21098C5.29876 374 3.46487 373.24 2.11273 371.888C0.760595 370.536 0.000976562 368.702 0.000976562 366.79V352Z" fill="black"/>
<path d="M122.5 325H73.5C72.1193 325 71 326.119 71 327.5V349.5C71 350.881 72.1193 352 73.5 352H122.5C123.881 352 125 350.881 125 349.5V327.5C125 326.119 123.881 325 122.5 325Z" fill="#090814"/>
<path d="M175 348H142C140.895 348 140 348.895 140 350C140 351.105 140.895 352 142 352H175C176.105 352 177 351.105 177 350C177 348.895 176.105 348 175 348Z" fill="#090814"/>
<path d="M107.151 80.38C133.541 85.25 160.461 80.38 186.741 77.08L266.611 67.08C269.841 66.67 274.541 64.74 276.441 68.69C277.511 70.9 276.791 75.69 276.871 78.23C277.081 85.23 277.061 92.23 276.871 99.23C276.511 112.61 275.531 125.96 274.281 139.28C271.851 165.35 268.411 191.28 266.691 217.45C265.811 230.77 265.371 244.13 265.761 257.45C265.851 260.63 265.981 263.81 266.171 266.98C266.381 270.53 267.971 275.8 264.101 278.17C261.891 279.53 257.541 279.46 255.011 279.86C251.011 280.49 247.011 280.99 242.931 281.4C216.041 284.09 188.801 282.97 161.811 282.81L80.311 282.39L60.431 282.28C58.631 282.28 52.141 283.36 51.031 281.22C50.561 280.31 51.811 276.05 52.031 274.91C52.3377 273.03 52.671 271.153 53.031 269.28C55.351 256.13 58.091 243.06 60.851 230C66.781 202 72.851 173.86 75.291 145.26C76.501 130.91 75.701 116.43 77.181 102.11C77.871 95.46 78.691 80.62 87.541 80.03C95.041 79.53 102.761 80.03 110.281 80.03C110.679 80.03 111.06 79.872 111.342 79.5907C111.623 79.3094 111.781 78.9278 111.781 78.53C111.781 78.1322 111.623 77.7506 111.342 77.4693C111.06 77.188 110.679 77.03 110.281 77.03C103.181 77.03 96.071 76.84 88.971 76.98C84.251 77.07 80.971 78.19 78.721 82.53C72.971 93.67 73.561 108.53 73.381 120.69C72.951 149.8 68.481 178.29 62.661 206.76C59.731 221.09 56.571 235.37 53.661 249.71C52.291 256.56 50.981 263.43 49.781 270.32C49.221 273.6 46.391 280.83 48.881 283.84C51.371 286.85 59.031 285.23 62.461 285.25L86.321 285.39L132.041 285.65C161.581 285.82 191.221 286.65 220.751 285.78C234.851 285.36 249.751 284.78 263.481 281.41C267.571 280.41 269.541 278.53 269.701 274.17C269.941 267.41 268.841 260.44 268.701 253.65C267.701 195.55 281.351 138.26 279.951 80.14C279.861 76.19 281.351 66.23 277.031 63.84C275.091 62.76 272.571 63.35 270.531 63.59C266.631 64.04 262.741 64.59 258.841 65.05L208.191 71.37C192.001 73.37 175.821 75.53 159.601 77.37C142.431 79.37 125.091 80.56 107.981 77.37C106.091 77.02 105.281 79.91 107.181 80.26L107.151 80.38Z" fill="#6C63FF"/>
<path d="M75.311 115.73L275.131 105.93C277.061 105.83 277.071 102.83 275.131 102.93L75.311 112.73C73.391 112.82 73.381 115.82 75.311 115.73Z" fill="#6C63FF"/>
<path d="M136.871 91C136.312 91.5922 135.906 92.3119 135.689 93.0967C135.472 93.8814 135.449 94.7073 135.624 95.5027C135.798 96.298 136.164 97.0387 136.69 97.6604C137.216 98.2821 137.886 98.766 138.641 99.07C141.331 100.3 144.491 99.27 147.161 98.6C151.161 97.6 155.161 96.71 159.271 95.98C168.216 94.3963 177.277 93.5535 186.361 93.46C190.501 93.41 194.611 93.6 198.751 93.78C201.751 93.9 204.981 94.14 207.521 92.28C210.421 90.16 211.361 86.02 208.521 83.44C204.521 79.79 195.901 81.91 191.281 82.29C174.517 83.6826 157.861 86.1679 141.421 89.73C139.541 90.13 140.331 93.03 142.221 92.62C153.068 90.28 163.998 88.4 175.011 86.98C180.424 86.3133 185.848 85.75 191.281 85.29C193.841 85.08 196.401 84.89 198.961 84.74C199.961 84.68 201.021 84.57 202.041 84.6C205.211 84.67 205.581 84.1 203.681 87.93C201.991 91.32 202.531 90.93 199.601 90.82C198.361 90.82 197.121 90.68 195.881 90.62C193.341 90.5133 190.801 90.4567 188.261 90.45C182.854 90.45 177.461 90.71 172.081 91.23C167.521 91.67 162.971 92.29 158.461 93.09C155.641 93.59 152.841 94.17 150.051 94.81C148.821 95.1 147.581 95.4 146.351 95.71C145.761 95.87 145.161 96.01 144.571 96.16C142.384 96.92 140.521 95.92 138.981 93.16C140.321 91.77 138.211 89.64 136.861 91.04L136.871 91Z" fill="#6C63FF"/>
<path d="M173.091 133.68C158.621 133.12 142.991 137.03 133.461 148.68C126.001 157.79 121.751 173.42 129.651 183.68C138.141 194.68 156.761 192.74 167.991 188.05C179.871 183.05 192.871 172.74 196.441 159.84C200.891 143.73 186.441 131.55 171.391 131.37C170.993 131.37 170.612 131.528 170.33 131.809C170.049 132.091 169.891 132.472 169.891 132.87C169.891 133.268 170.049 133.649 170.33 133.931C170.612 134.212 170.993 134.37 171.391 134.37C179.971 134.47 188.391 138.15 192.391 146.14C196.581 154.56 192.971 163.4 187.391 170.14C178.451 180.87 164.471 188.96 150.231 188.73C141.681 188.6 132.231 185.67 129.581 176.65C127.401 169.34 129.061 161.35 132.861 154.87C141.081 140.87 157.811 136.13 173.151 136.73C175.081 136.8 175.081 133.8 173.151 133.73L173.091 133.68Z" fill="#6C63FF"/>
<path d="M158.721 155.9C158.104 155.671 157.439 155.603 156.789 155.7C156.138 155.797 155.522 156.058 154.999 156.457C154.476 156.856 154.063 157.381 153.797 157.983C153.532 158.585 153.423 159.245 153.481 159.9C153.781 163.8 158.081 164.9 161.311 164.67C164.101 164.43 167.361 163.4 166.381 159.91C166.201 159.292 165.889 158.721 165.468 158.234C165.047 157.747 164.526 157.357 163.941 157.09C163.046 156.735 162.075 156.614 161.121 156.74C160.751 156.74 157.361 157.98 158.801 156.49L156.441 156.18C156.703 156.438 156.904 156.752 157.028 157.098C157.153 157.444 157.198 157.814 157.161 158.18C157.166 158.441 157.238 158.697 157.371 158.922C157.504 159.147 157.693 159.334 157.92 159.464C158.146 159.594 158.403 159.663 158.665 159.664C158.926 159.665 159.183 159.598 159.411 159.47C159.754 159.326 160.13 159.281 160.498 159.34C160.865 159.398 161.209 159.558 161.49 159.801C161.772 160.044 161.98 160.361 162.091 160.716C162.203 161.071 162.213 161.45 162.121 161.81C162.04 162.156 162.085 162.52 162.246 162.837C162.407 163.154 162.676 163.404 163.003 163.542C163.331 163.681 163.697 163.7 164.036 163.595C164.376 163.49 164.668 163.269 164.861 162.97C165.861 161.17 167.071 157.59 165.571 155.71C164.571 154.44 162.641 154.82 161.441 155.56C160.7 156.084 160.011 156.677 159.381 157.33C158.171 158.4 157.381 158.9 157.831 156.85C158.581 153.12 162.141 150.15 165.391 148.66L163.191 146.97C162.038 151.304 159.975 155.344 157.141 158.82L159.701 159.88C159.628 158.507 159.981 157.145 160.711 155.98C161.442 154.815 162.514 153.903 163.781 153.37H162.311L163.091 154.65C162.801 156.54 165.691 157.35 165.981 155.44C166.361 152.97 164.801 149.76 161.911 150.97C158.461 152.41 156.671 156.36 156.741 159.88C156.741 161.08 158.441 162.01 159.311 160.95C162.491 157.086 164.813 152.59 166.121 147.76C166.19 147.473 166.175 147.173 166.077 146.895C165.978 146.617 165.801 146.373 165.567 146.194C165.333 146.015 165.052 145.908 164.758 145.886C164.463 145.864 164.169 145.928 163.911 146.07C160.915 147.424 158.384 149.629 156.631 152.41C155.411 154.41 153.881 157.53 155.121 159.83C155.324 160.198 155.598 160.522 155.928 160.783C156.257 161.045 156.635 161.238 157.039 161.353C157.444 161.467 157.867 161.5 158.284 161.45C158.702 161.4 159.105 161.267 159.471 161.06C160.396 160.512 161.24 159.839 161.981 159.06C162.351 158.73 162.761 158.16 163.251 158.06C163.691 157.76 163.671 157.93 163.181 158.59C163.174 159.626 162.873 160.639 162.311 161.51L165.051 162.66C165.298 161.726 165.269 160.741 164.968 159.823C164.667 158.906 164.107 158.095 163.355 157.489C162.603 156.883 161.691 156.507 160.73 156.408C159.77 156.309 158.801 156.49 157.941 156.93L160.201 158.23C160.248 156.957 159.848 155.709 159.071 154.7C158.953 154.506 158.793 154.34 158.602 154.216C158.412 154.091 158.196 154.011 157.97 153.982C157.745 153.952 157.515 153.973 157.299 154.044C157.083 154.114 156.885 154.233 156.721 154.39C155.201 155.98 154.911 158.73 156.821 160.2C158.251 161.29 158.951 160.2 160.521 159.95C165.851 159.26 162.741 161.66 160.861 161.74C160.02 161.83 159.17 161.769 158.351 161.56C156.264 160.853 156.134 159.943 157.961 158.83C159.751 159.56 160.521 156.66 158.761 155.94L158.721 155.9Z" fill="#6C63FF"/>
<path d="M156.311 161.38C157.541 165.38 152.461 166.7 150.051 168.08C148.36 169.028 146.885 170.319 145.721 171.87C143.201 175.25 142.261 179.55 141.431 183.6C141.051 185.49 143.941 186.29 144.331 184.4C144.788 181.424 145.639 178.522 146.861 175.77C148.661 172.19 151.241 170.99 154.601 169.15C157.961 167.31 160.391 164.46 159.201 160.58C158.641 158.74 155.741 159.53 156.311 161.38Z" fill="#6C63FF"/>
<path d="M161.311 159.37C160.596 159.469 159.943 159.831 159.48 160.386C159.018 160.941 158.779 161.648 158.811 162.37C158.811 163.56 159.601 164.32 160.141 165.27C161.423 167.214 162.401 169.341 163.041 171.58C163.521 173.73 163.991 177.58 162.871 179.58C160.801 183.29 157.061 182.58 153.871 182.58C150.871 182.58 148.551 183.58 148.651 179.4C148.711 177.05 150.351 174.67 151.651 172.82L148.911 172.46C149.489 175.513 149.794 178.612 149.821 181.72C149.821 183.11 151.951 183.88 152.611 182.47C154.219 179.088 155.495 175.558 156.421 171.93L153.471 171.53L153.991 179.13C154 179.454 154.113 179.767 154.313 180.022C154.513 180.278 154.791 180.461 155.104 180.547C155.417 180.632 155.749 180.614 156.051 180.496C156.353 180.378 156.609 180.165 156.781 179.89C157.131 179.503 157.388 179.042 157.531 178.54C157.631 178.07 156.711 174.9 156.341 176.03L159.281 176.43L159.491 169.21L156.491 169.61C157.125 171.646 157.316 173.794 157.051 175.91C156.861 177.58 159.671 177.96 160.051 176.31L161.931 166.61L159.191 166.96C159.842 168.302 160.022 169.824 159.701 171.28C159.481 173.2 162.481 173.18 162.701 171.28C162.956 169.289 162.637 167.266 161.781 165.45C161.629 165.2 161.407 164.999 161.143 164.872C160.879 164.746 160.584 164.698 160.294 164.737C160.003 164.775 159.73 164.897 159.508 165.087C159.285 165.278 159.123 165.529 159.041 165.81L157.151 175.51L160.101 175.91C160.401 173.526 160.172 171.105 159.431 168.82C159.331 168.476 159.111 168.179 158.81 167.983C158.51 167.787 158.149 167.705 157.793 167.752C157.438 167.799 157.111 167.972 156.872 168.24C156.633 168.507 156.498 168.851 156.491 169.21L156.281 176.43C156.289 176.789 156.425 177.133 156.664 177.401C156.903 177.668 157.23 177.842 157.585 177.89C157.941 177.938 158.302 177.858 158.604 177.664C158.905 177.469 159.128 177.174 159.231 176.83L159.391 176.34C159.46 176.085 159.462 175.816 159.395 175.56C159.328 175.303 159.196 175.069 159.011 174.88C155.901 171.5 155.271 176.88 154.191 178.37L156.991 179.13L156.471 171.53C156.361 169.91 153.961 169.41 153.521 171.13C152.676 174.512 151.504 177.805 150.021 180.96L152.821 181.72C152.789 178.344 152.454 174.977 151.821 171.66C151.561 170.28 149.751 170.34 149.081 171.3C147.081 174.18 143.621 180.47 146.291 183.92C148.621 186.92 155.951 185.76 159.081 185.57C164.021 185.29 165.811 182.16 166.351 177.5C166.608 175.268 166.483 173.009 165.981 170.82C165.711 169.64 162.981 162.16 162.161 162.31C164.061 161.96 163.251 159.06 161.361 159.41L161.311 159.37Z" fill="#6C63FF"/>
<path d="M155.501 166.11L147.311 176.92L149.901 178.43L155.901 169.75L153.161 168.59L150.171 180C150.09 180.346 150.135 180.71 150.296 181.027C150.458 181.344 150.726 181.594 151.053 181.733C151.381 181.871 151.747 181.89 152.086 181.785C152.426 181.68 152.718 181.459 152.911 181.16C154.272 178.906 155.799 176.756 157.481 174.73L154.981 173.27C154.31 175.853 153.015 178.233 151.211 180.2L153.721 181.66C153.875 180.278 154.242 178.929 154.811 177.66C155.581 175.93 153.141 174.4 152.221 176.14C151.375 177.725 150.409 179.243 149.331 180.68L152.071 181.04L152.681 178.19L149.941 177.83L150.381 180.33C150.453 180.582 150.59 180.81 150.777 180.993C150.964 181.176 151.195 181.307 151.448 181.374C151.701 181.44 151.967 181.44 152.22 181.373C152.473 181.305 152.704 181.173 152.891 180.99C155.427 178.365 157.461 175.298 158.891 171.94H156.311C156.989 173.191 157.465 174.541 157.721 175.94C158.081 177.74 160.471 177.07 160.661 175.54C161.091 172.19 161.311 168.817 161.321 165.44H158.321V171.73C158.321 173.36 160.991 173.84 161.271 172.13C161.469 170.613 161.969 169.151 162.741 167.83H160.111C160.745 168.852 161.09 170.027 161.111 171.23C161.111 171.628 161.269 172.009 161.55 172.291C161.832 172.572 162.213 172.73 162.611 172.73C163.009 172.73 163.39 172.572 163.672 172.291C163.953 172.009 164.111 171.628 164.111 171.23L164.491 169.23H161.601C161.891 171 162.991 180.97 159.081 179.8C158.421 179.64 158.231 179.68 158.511 179.91L159.401 178.01L161.491 173.58L158.691 172.82C158.871 174.88 159.061 177.82 157.821 179.58C156.821 181.01 153.741 181.58 152.171 180.74C151.135 180.001 150.249 179.071 149.561 178L147.511 180C149.171 181.21 151.861 184.18 154.001 184.35C155.631 184.48 157.001 183.13 158.071 182.05C159.712 180.354 160.992 178.342 161.833 176.137C162.673 173.931 163.057 171.578 162.961 169.22C162.961 168.822 162.803 168.441 162.522 168.159C162.24 167.878 161.859 167.72 161.461 167.72C161.063 167.72 160.682 167.878 160.4 168.159C160.119 168.441 159.961 168.822 159.961 169.22V172.64C159.961 173.038 160.119 173.419 160.4 173.701C160.682 173.982 161.063 174.14 161.461 174.14C161.859 174.14 162.24 173.982 162.522 173.701C162.803 173.419 162.961 173.038 162.961 172.64V164.25C162.961 163.852 162.803 163.471 162.522 163.189C162.24 162.908 161.859 162.75 161.461 162.75C161.063 162.75 160.682 162.908 160.4 163.189C160.119 163.471 159.961 163.852 159.961 164.25C159.956 166.261 159.782 168.268 159.441 170.25L162.391 170.65C162.156 168.261 162.046 165.861 162.061 163.46C162.056 163.101 161.923 162.755 161.685 162.486C161.446 162.216 161.119 162.042 160.763 161.993C160.407 161.945 160.046 162.026 159.744 162.222C159.443 162.417 159.222 162.715 159.121 163.06C158.671 164.97 158.121 166.85 157.591 168.72L160.331 168.36L160.121 167.56C159.981 165.65 156.981 165.64 157.121 167.56C157.154 168.37 157.366 169.162 157.741 169.88C158.321 171.1 160.131 170.67 160.481 169.52C161.051 167.64 161.561 165.76 162.011 163.86L159.061 163.46C159.046 165.861 159.156 168.261 159.391 170.65C159.541 172.19 162.021 172.85 162.331 171.05C162.73 168.791 162.941 166.504 162.961 164.21H159.961V172.6H162.961V169.18H159.961C160.137 172.952 158.827 176.643 156.311 179.46C155.921 179.903 155.5 180.317 155.051 180.7C154.341 181.38 153.691 181.28 153.121 180.39C151.701 179.8 150.231 178.28 148.991 177.39C147.751 176.5 146.051 178.26 146.931 179.44C149.231 182.5 152.661 185.91 156.931 184.44C161.421 182.85 162.031 176.77 161.691 172.77C161.581 171.44 159.591 170.54 158.901 172.02C157.901 174.13 156.901 176.23 155.901 178.35C155.383 179.14 155.073 180.048 155.001 180.99C155.331 183.24 158.061 182.87 159.741 182.74C166.251 182.25 165.221 173.02 164.471 168.38C164.221 166.84 161.981 167.08 161.581 168.38C161.263 169.293 161.098 170.253 161.091 171.22H164.091C163.982 169.501 163.501 167.825 162.681 166.31C162.547 166.086 162.357 165.901 162.13 165.773C161.903 165.644 161.647 165.577 161.386 165.577C161.125 165.577 160.869 165.644 160.642 165.773C160.415 165.901 160.225 166.086 160.091 166.31C159.197 167.854 158.593 169.548 158.311 171.31L161.311 171.71V165.42C161.311 165.022 161.153 164.641 160.872 164.359C160.59 164.078 160.209 163.92 159.811 163.92C159.413 163.92 159.032 164.078 158.75 164.359C158.469 164.641 158.311 165.022 158.311 165.42C158.301 168.797 158.081 172.17 157.651 175.52L160.601 175.12C160.262 173.485 159.686 171.909 158.891 170.44C158.757 170.216 158.567 170.031 158.34 169.903C158.113 169.774 157.857 169.707 157.596 169.707C157.335 169.707 157.079 169.774 156.852 169.903C156.625 170.031 156.435 170.216 156.301 170.44C154.997 173.572 153.122 176.434 150.771 178.88L153.281 179.54L152.841 177.04C152.611 175.71 150.731 175.67 150.101 176.68C149.604 177.432 149.267 178.278 149.11 179.166C148.954 180.053 148.981 180.963 149.191 181.84C149.441 183.26 151.241 183.11 151.931 182.2C153.009 180.766 153.975 179.252 154.821 177.67L152.231 176.15C151.539 177.644 151.068 179.231 150.831 180.86C150.651 182.18 152.221 183.56 153.341 182.32C155.491 179.968 157.047 177.136 157.881 174.06C158.251 172.7 156.371 171.41 155.371 172.6C153.531 174.805 151.86 177.145 150.371 179.6L153.111 180.76L156.161 169.39C156.242 169.044 156.197 168.68 156.036 168.363C155.875 168.046 155.606 167.796 155.279 167.657C154.951 167.519 154.585 167.5 154.246 167.605C153.906 167.71 153.614 167.931 153.421 168.23L147.421 176.92C146.301 178.53 148.871 179.92 150.011 178.43L158.171 167.63C159.331 166.09 156.731 164.63 155.581 166.11H155.501Z" fill="#6C63FF"/>
<path d="M283.081 202.2C295.081 194.86 304.621 183.91 315.221 174.75C326.721 164.82 338.791 155.57 351.221 146.81C375.361 129.81 400.711 114.6 426.041 99.43C426.369 99.2223 426.604 98.8955 426.696 98.5181C426.788 98.1408 426.731 97.7424 426.535 97.4069C426.339 97.0713 426.021 96.8247 425.647 96.719C425.274 96.6133 424.873 96.6566 424.531 96.84C399.201 112.01 373.841 127.19 349.701 144.22C338.311 152.22 327.191 160.7 316.531 169.7C304.931 179.5 294.601 191.7 281.531 199.61C279.881 200.61 281.391 203.21 283.041 202.2H283.081Z" fill="#6C63FF"/>
<path d="M464.771 52.85C451.771 54.17 437.771 57.48 429.771 68.85C422.861 78.63 423.011 95.69 429.501 105.73C436.871 117.14 451.931 117.55 463.631 113.86C475.331 110.17 487.441 103.7 487.331 89.72C487.271 82.22 484.561 74.41 481.571 67.61C478.991 61.74 474.421 56.61 467.501 57.26C465.591 57.44 465.571 60.44 467.501 60.26C476.771 59.4 479.751 70.41 481.951 77.36C483.951 83.85 485.801 91.53 482.661 97.98C479.521 104.43 471.951 107.72 465.481 110.08C458.481 112.62 450.791 114.17 443.481 112.08C429.001 108.03 425.001 89.68 429.171 76.66C433.971 61.66 450.971 57.25 464.821 55.85C466.721 55.66 466.741 52.66 464.821 52.85H464.771Z" fill="#6C63FF"/>
<path d="M484.771 168.85C471.771 170.17 457.771 173.48 449.771 184.85C442.861 194.63 443.011 211.69 449.501 221.73C456.871 233.14 471.931 233.55 483.631 229.86C495.331 226.17 507.441 219.7 507.331 205.72C507.271 198.22 504.561 190.41 501.571 183.61C498.991 177.74 494.421 172.61 487.501 173.26C485.591 173.44 485.571 176.44 487.501 176.26C496.771 175.4 499.751 186.41 501.951 193.36C503.951 199.85 505.801 207.53 502.661 213.98C499.521 220.43 491.951 223.72 485.481 226.08C478.481 228.62 470.791 230.17 463.481 228.08C449.001 224.03 445.001 205.68 449.171 192.66C453.971 177.66 470.971 173.25 484.821 171.85C486.721 171.66 486.741 168.66 484.821 168.85H484.771Z" fill="#6C63FF"/>
<path d="M445.161 82.06L454.631 92.86C454.818 93.0409 455.049 93.1703 455.302 93.2354C455.554 93.3006 455.819 93.2994 456.07 93.232C456.322 93.1646 456.552 93.0331 456.738 92.8506C456.924 92.668 457.059 92.4404 457.131 92.19C459.131 86.93 458.751 81.48 459.221 75.95C459.739 70.2344 461.174 64.6395 463.471 59.38C468.085 48.7123 475.907 39.7469 485.851 33.73C487.501 32.73 485.991 30.13 484.341 31.14C474.536 37.0441 466.67 45.685 461.711 56C459.283 61.0194 457.599 66.3655 456.711 71.87C455.711 78.36 456.621 85.16 454.221 91.39L456.731 90.72L447.311 79.94C446.031 78.49 443.921 80.62 445.191 82.06H445.161Z" fill="#6C63FF"/>
<path d="M287.911 213.89C339.491 212.317 391.084 211.983 442.691 212.89C443.089 212.89 443.47 212.732 443.752 212.451C444.033 212.169 444.191 211.788 444.191 211.39C444.191 210.992 444.033 210.611 443.752 210.329C443.47 210.048 443.089 209.89 442.691 209.89C391.098 208.97 339.504 209.303 287.911 210.89C285.981 210.95 285.971 213.95 287.911 213.89Z" fill="#6C63FF"/>
<path d="M453.471 184.31C471.103 191.23 488.064 199.753 504.141 209.77C505.781 210.77 507.291 208.2 505.651 207.18C489.363 197.039 472.177 188.416 454.311 181.42C452.521 180.71 451.741 183.61 453.521 184.31H453.471Z" fill="#6C63FF"/>
<path d="M485.491 170.72C467.611 191.564 457.253 217.812 456.081 245.25C456.001 247.18 459.001 247.18 459.081 245.25C460.217 218.6 470.263 193.102 487.611 172.84C488.861 171.38 486.751 169.25 485.491 170.72Z" fill="#6C63FF"/>
<path d="M85.541 203L197.311 201.54L210.161 201.37C212.471 201.37 214.781 201.29 217.091 201.28C220.341 201.28 222.531 203.98 222.471 207.28C222.321 214.28 217.921 214.03 212.161 214.28L198.271 214.91L141.711 217.4C131.581 217.85 121.441 218.4 111.311 218.75C102.171 219.03 84.791 216.05 88.851 202.75C89.411 200.9 86.521 200.11 85.951 201.95C83.951 208.49 87.491 215.13 93.191 218.56C101.281 223.42 111.941 221.77 120.871 221.37L190.311 218.22L207.171 217.47C211.491 217.27 217.501 218.15 221.471 216.14C226.131 213.79 226.951 204.46 224.011 200.53C222.501 198.53 220.381 198.35 218.011 198.26C211.791 198.02 205.461 198.43 199.231 198.51L164.611 198.97L85.501 199.97C85.1032 199.97 84.7216 200.128 84.4403 200.409C84.159 200.691 84.001 201.072 84.001 201.47C84.001 201.868 84.159 202.249 84.4403 202.531C84.7216 202.812 85.1032 202.97 85.501 202.97L85.541 203Z" fill="#6C63FF"/>
<path d="M537.121 570.5C534.601 572.08 531.721 572.97 529.121 574.36C526.521 575.75 523.991 577.84 523.251 580.72C522.975 581.614 523.021 582.576 523.381 583.44C524.028 584.483 525.018 585.268 526.181 585.66C531.463 588.006 537.168 589.249 542.947 589.315C548.726 589.38 554.457 588.266 559.791 586.04C561.668 585.138 563.606 584.369 565.591 583.74C568.036 583.241 570.525 582.987 573.021 582.98C575.644 582.827 578.254 582.493 580.831 581.98C582.127 581.836 583.354 581.326 584.371 580.51C585.299 579.441 585.856 578.101 585.961 576.69C587.144 568.899 585.36 560.948 580.961 554.41C580.407 553.494 579.664 552.706 578.781 552.1C577.705 551.544 576.521 551.226 575.311 551.17C570.311 550.56 565.071 549.44 560.021 549.32C556.401 549.24 554.581 550.96 552.021 553.45C546.731 558.74 543.641 566.43 537.121 570.5Z" fill="#323444"/>
<path d="M610.811 569.76C610.811 574.66 611.401 579.85 614.371 583.76C615.729 585.451 617.374 586.889 619.231 588.01C625.511 592.01 633.831 593.48 640.451 590.09C641.52 589.61 642.435 588.841 643.091 587.87C644.091 586.13 643.561 583.96 643.001 582.04L633.421 548.84C627.231 549.79 618.131 550.46 612.631 553.6C608.641 555.87 610.811 565.38 610.811 569.76Z" fill="#323444"/>
<path d="M531.501 365.33C530.921 367.16 528.821 368.01 527.671 369.55C526.321 371.36 526.461 373.87 526.951 376.07C527.556 379.314 529.08 382.316 531.341 384.72C532.488 385.911 533.904 386.81 535.47 387.342C537.035 387.874 538.706 388.025 540.341 387.78C541.956 387.482 543.428 386.662 544.532 385.446C545.635 384.23 546.31 382.686 546.451 381.05C546.393 379.563 546.075 378.097 545.511 376.72L538.691 357C538.686 356.86 538.641 356.724 538.562 356.608C538.484 356.492 538.374 356.401 538.245 356.344C538.117 356.288 537.975 356.269 537.836 356.289C537.698 356.31 537.568 356.369 537.461 356.46C535.851 357.22 532.621 358.02 531.681 359.69C530.741 361.36 532.181 363.52 531.501 365.33Z" fill="#FBB3B2"/>
<path d="M528.311 364.34C530.801 363.95 532.981 362.49 535.311 361.53C537.641 360.57 540.561 360.2 542.521 361.8C543.081 362.26 543.621 362.89 544.351 362.88C543.358 357.99 541.856 353.218 539.871 348.64C539.801 348.421 539.665 348.229 539.481 348.09C539.208 347.979 538.904 347.979 538.631 348.09L531.901 349.85C529.411 350.5 529.121 350.3 529.311 352.75C529.361 353.84 529.921 364.34 528.311 364.34Z" fill="#323444"/>
<path d="M527.571 221.94C526.571 223.48 526.571 225.4 526.571 227.21C526.571 236.06 526.661 244.96 527.971 253.72C528.281 255.82 528.671 257.92 528.871 260.04C529.098 262.991 529.144 265.953 529.011 268.91L528.011 307.41C527.891 312.12 527.651 317.18 524.741 320.88C523.859 322.12 523.444 323.633 523.571 325.15C524.331 334.81 525.931 344.39 527.521 353.94C530.081 352.785 532.878 352.253 535.683 352.387C538.489 352.521 541.222 353.317 543.661 354.71C548.706 338.846 551.497 322.351 551.951 305.71C552.181 297.52 551.831 289.28 553.091 281.19C555.201 267.57 554.341 253.6 552.791 239.9C552.301 235.56 551.261 231.09 548.481 227.73C545.849 224.79 542.344 222.771 538.481 221.97C534.781 221 531.471 222 527.571 221.94Z" fill="#5B5583"/>
<path opacity="0.1" d="M527.571 221.94C526.571 223.48 526.571 225.4 526.571 227.21C526.571 236.06 526.661 244.96 527.971 253.72C528.281 255.82 528.671 257.92 528.871 260.04C529.098 262.991 529.144 265.953 529.011 268.91L528.011 307.41C527.891 312.12 527.651 317.18 524.741 320.88C523.859 322.12 523.444 323.633 523.571 325.15C524.331 334.81 525.931 344.39 527.521 353.94C530.081 352.785 532.878 352.253 535.683 352.387C538.489 352.521 541.222 353.317 543.661 354.71C548.706 338.846 551.497 322.351 551.951 305.71C552.181 297.52 551.831 289.28 553.091 281.19C555.201 267.57 554.341 253.6 552.791 239.9C552.301 235.56 551.261 231.09 548.481 227.73C545.849 224.79 542.344 222.771 538.481 221.97C534.781 221 531.471 222 527.571 221.94Z" fill="black"/>
<path d="M539.791 333.59C533.084 367.959 536.746 403.547 550.311 435.83C551.483 438.22 552.305 440.766 552.751 443.39C553.301 448.29 551.041 453 549.751 457.74C546.751 468.52 548.481 480 550.401 491.03C551.201 495.63 552.024 500.227 552.871 504.82C553.701 509.3 554.501 514.17 552.421 518.23C554.211 525.69 555.271 533.08 557.061 540.54C557.251 541.13 557.309 541.755 557.231 542.37C556.87 543.346 556.235 544.197 555.401 544.82C554.067 546.173 553.108 547.849 552.619 549.685C552.13 551.521 552.127 553.453 552.611 555.29C557.181 552.01 563.551 553.16 568.771 555.29C573.991 557.42 579.131 560.29 584.771 560.29C583.951 553.67 583.161 546.72 585.601 540.51C587.021 536.91 589.521 533.51 589.451 529.66C589.381 526.21 587.271 523.13 586.761 519.72C586.571 517.598 586.652 515.461 587.001 513.36C588.341 501.12 586.821 488.76 585.301 476.54C585.129 474.13 584.562 471.765 583.621 469.54C582.911 468.1 581.851 466.72 581.871 465.11C581.871 463.24 583.381 461.72 583.941 459.94C584.941 456.66 583.101 452.2 585.871 450.17C593.171 444.81 590.371 432.01 590.211 422.96C590.084 415.153 589.751 407.353 589.211 399.56C593.807 412.484 595.686 426.217 594.731 439.9C594.411 444.38 593.821 449.09 595.571 453.23C596.911 456.41 599.571 459.03 600.291 462.4C600.741 464.48 600.421 466.63 600.521 468.75C600.621 470.87 601.341 473.18 603.171 474.25C603.311 483.89 604.171 494.2 604.321 503.84C604.224 508.768 604.626 513.693 605.521 518.54C605.97 520.082 606.219 521.675 606.261 523.28C606.035 525.293 605.503 527.259 604.681 529.11C602.938 534.27 602.483 539.779 603.354 545.155C604.225 550.532 606.397 555.614 609.681 559.96C612.041 555.77 616.961 553.55 621.761 553.2C626.561 552.85 631.301 554.06 635.951 555.28C635.24 549.437 636.403 543.52 639.271 538.38C640.04 537.222 640.63 535.954 641.021 534.62C641.561 532.08 640.301 529.55 639.621 527.04C638.511 523.04 638.901 518.73 639.161 514.55C640.034 500.551 639.413 486.498 637.311 472.63C636.986 469.898 636.345 467.214 635.401 464.63C635.041 463.71 634.601 462.83 634.301 461.9C633.829 460.232 633.56 458.513 633.501 456.78L632.351 440.78C631.541 429.57 635.221 418.5 637.791 407.56C638.941 402.66 640.191 397.77 640.961 392.79C642.011 386.01 642.181 379.08 643.721 372.39C645.101 366.39 647.591 360.54 648.111 354.39C648.911 344.86 644.951 335.65 641.111 326.91C639.511 323.31 633.461 323.67 629.571 323.03C601.981 318.5 572.921 318.47 546.901 328.68C544.21 329.795 541.787 331.468 539.791 333.59Z" fill="#3C354C"/>
<path d="M559.681 156.1L562.741 168C563.573 170.729 564.034 173.558 564.111 176.41C564.143 177.45 563.912 178.482 563.441 179.41C562.937 180.172 562.292 180.831 561.541 181.35C559.451 182.94 558.001 186.65 555.611 187.75C556.841 189.89 558.541 188.5 560.761 189.57C564.671 191.47 568.251 194.2 572.491 195.14C576.491 196.02 580.691 195.19 584.661 194.14C590.291 192.61 595.891 190.5 600.421 186.81C604.951 183.12 607.531 179.86 607.511 174.03C602.511 174.62 598.061 169.57 595.851 165.03C595.085 163.304 594.521 161.495 594.171 159.64L591.491 147.85C588.571 148.49 586.191 150.58 583.401 151.67C580.611 152.76 577.311 152.86 574.211 153C568.708 153.25 563.236 153.959 557.851 155.12C557.111 155.27 556.181 155.74 556.361 156.46" fill="#FBB3B2"/>
<path opacity="0.1" d="M559.681 156.1L562.741 168C563.573 170.729 564.034 173.558 564.111 176.41C564.143 177.45 563.912 178.482 563.441 179.41C562.937 180.172 562.292 180.831 561.541 181.35C559.451 182.94 558.001 186.65 555.611 187.75C556.841 189.89 558.541 188.5 560.761 189.57C564.671 191.47 568.251 194.2 572.491 195.14C576.491 196.02 580.691 195.19 584.661 194.14C590.291 192.61 595.891 190.5 600.421 186.81C604.951 183.12 607.531 179.86 607.511 174.03C602.511 174.62 598.061 169.57 595.851 165.03C595.085 163.304 594.521 161.495 594.171 159.64L591.491 147.85C588.571 148.49 586.191 150.58 583.401 151.67C580.611 152.76 577.311 152.86 574.211 153C568.708 153.25 563.236 153.959 557.851 155.12C557.111 155.27 556.181 155.74 556.361 156.46" fill="black"/>
<path d="M572.821 162.66C587.446 162.66 599.301 150.804 599.301 136.18C599.301 121.555 587.446 109.7 572.821 109.7C558.197 109.7 546.341 121.555 546.341 136.18C546.341 150.804 558.197 162.66 572.821 162.66Z" fill="#FBB3B2"/>
<path d="M580.111 179.83C581.527 176.772 583.571 174.046 586.111 171.83C589.841 168.56 594.941 165.91 595.821 161.03L603.901 170.44C604.34 170.876 604.681 171.401 604.901 171.98C605.003 172.523 604.988 173.081 604.857 173.617C604.726 174.153 604.482 174.655 604.141 175.09C602.141 178.28 598.991 180.56 596.011 182.87C589.181 188.28 582.642 194.048 576.421 200.15C576.147 200.468 575.779 200.692 575.371 200.79C574.984 200.801 574.604 200.692 574.281 200.48C568.914 197.662 564.164 193.8 560.311 189.12C560.021 188.77 559.661 188.37 559.191 188.4C558.908 188.452 558.646 188.588 558.441 188.79C555.751 190.99 552.811 193.62 549.361 193.28C553.831 190.07 556.361 184.71 557.301 179.28C557.487 177.422 557.869 175.588 558.441 173.81C558.737 172.92 559.248 172.118 559.928 171.472C560.608 170.827 561.437 170.359 562.341 170.11C560.161 173.44 561.651 178.16 564.581 180.85C567.428 183.266 570.841 184.921 574.501 185.66C577.901 186.3 578.901 182.45 580.111 179.83Z" fill="#323444"/>
<path d="M545.661 336.31C549.431 337.24 553.001 338.82 556.661 339.99C563.332 342.079 570.352 342.817 577.311 342.16C579.453 342.113 581.536 341.45 583.311 340.25C583.781 339.87 584.211 339.42 584.711 339.07C585.547 338.568 586.454 338.194 587.401 337.96C596.571 335.09 604.251 328.9 611.701 322.84C611.941 322.64 612.211 322.39 612.191 322.07C612.157 321.852 612.051 321.652 611.891 321.5L607.971 317C597.691 318.75 587.161 318.09 576.731 317.83C574.59 317.735 572.444 317.792 570.311 318C568.251 318.24 566.221 318.76 564.191 319.2C556.481 320.88 548.601 321.52 540.791 322.62C540.245 322.66 539.715 322.824 539.241 323.1C538.912 323.355 538.631 323.666 538.411 324.02L535.671 327.87C534.607 329.165 533.824 330.667 533.371 332.28C532.731 335.28 534.071 336.28 536.621 335.89C539.633 335.449 542.702 335.592 545.661 336.31Z" fill="#323444"/>
<path d="M576.311 195.57C573.252 192.435 569.784 189.728 566.001 187.52C564.473 186.549 562.777 185.871 561.001 185.52C560.107 185.344 559.186 185.365 558.301 185.583C557.417 185.8 556.591 186.209 555.881 186.78C554.991 187.57 554.431 188.67 553.571 189.5C552.489 190.409 551.248 191.111 549.911 191.57C545.359 193.515 541.044 195.974 537.051 198.9C534.874 200.423 532.913 202.232 531.221 204.28C526.691 210.08 526.011 217.97 526.131 225.33C526.221 230.45 531.131 234.25 534.511 238.08C537.681 241.849 540.55 245.861 543.091 250.08C544.911 252.96 546.811 256.08 546.581 259.51C546.391 262.32 544.751 264.96 545.011 267.76C545.101 268.76 545.421 269.68 545.511 270.65C545.691 272.65 544.901 274.65 544.701 276.65C544.431 279.48 545.351 282.29 545.401 285.14C545.364 287.091 545.116 289.032 544.661 290.93C542.741 300.07 540.331 309.26 540.821 318.59L535.281 319.59C535.806 320.104 536.202 320.735 536.438 321.431C536.674 322.127 536.742 322.869 536.638 323.596C536.534 324.323 536.26 325.016 535.838 325.618C535.416 326.22 534.859 326.714 534.211 327.06C542.861 329.95 552.211 328.49 561.381 328.48C568.971 328.48 576.531 329.48 584.111 329.34C591.691 329.2 599.511 327.83 605.761 323.54C607.461 322.38 609.021 321.02 610.811 320.01C613.209 318.767 615.792 317.923 618.461 317.51C623.404 316.567 628.429 316.118 633.461 316.17C635.921 316.17 638.601 316.27 640.561 314.79C642.721 313.15 643.271 310.18 643.561 307.49C643.851 304.65 644.031 301.8 644.081 298.95C644.165 296.731 644.048 294.508 643.731 292.31C643.431 290.703 643.04 289.113 642.561 287.55L638.791 274.27C637.231 268.79 639.401 262.78 639.861 257.1C639.971 255.76 639.991 254.2 638.961 253.34C638.591 253.03 638.081 252.82 637.961 252.34C637.907 252.112 637.901 251.876 637.942 251.645C637.983 251.415 638.071 251.195 638.201 251C640.201 247 643.201 243.47 645.941 239.86C650.543 233.528 654.815 226.962 658.741 220.19C657.512 206.018 651.544 192.674 641.801 182.31C639.898 180.016 637.464 178.221 634.711 177.08C632.881 176.521 630.984 176.215 629.071 176.17C621.231 175.64 613.071 175.17 606.241 171.23C605.751 170.89 605.196 170.656 604.611 170.54C603.101 170.37 602.001 171.86 601.021 173.04C598.501 176.04 594.791 177.76 591.531 179.97C585.451 184.1 580.701 189.78 576.311 195.57Z" fill="#5B5583"/>
<path d="M659.421 224.28C660.981 229.22 660.831 234.5 661.341 239.65C661.643 242.758 662.188 245.837 662.971 248.86C663.328 250.521 663.971 252.108 664.871 253.55C665.771 254.87 667.061 255.94 667.631 257.43C667.943 258.439 668.081 259.494 668.041 260.55L668.161 267.45C668.418 271.106 667.861 274.774 666.531 278.19L662.221 291.3C659.891 298.4 657.501 305.61 653.301 311.79C652.709 312.836 651.813 313.677 650.731 314.2C649.884 314.424 649.016 314.558 648.141 314.6C646.616 314.872 645.234 315.667 644.232 316.848C643.23 318.028 642.671 319.521 642.651 321.07C641.65 319.608 640.401 318.332 638.961 317.3L630.191 310.3C627.191 307.86 624.061 305.38 620.421 303.97C625.317 302.441 629.663 299.524 632.933 295.572C636.203 291.621 638.255 286.805 638.841 281.71C638.838 280.193 639.18 278.695 639.841 277.33C640.571 276.15 641.921 275.25 642.021 273.86C642.141 272.11 640.161 270.79 640.161 269.04C640.161 267.88 641.021 266.92 641.401 265.83C641.756 264.483 641.756 263.067 641.401 261.72L640.191 255C640.12 254.327 639.916 253.674 639.591 253.08C639.138 252.51 638.636 251.982 638.091 251.5C636.011 249.17 636.931 245.5 638.091 242.63C640.755 236.259 644.187 230.238 648.311 224.7C649.779 222.84 651.138 220.897 652.381 218.88C653.441 217.04 653.681 214.49 654.801 212.88C656.241 216.66 658.191 220.39 659.421 224.28Z" fill="#5B5583"/>
<path d="M620.111 304.38C619.665 304.711 619.279 305.117 618.971 305.58C617.793 307.059 616.223 308.178 614.441 308.81C615.441 309.53 616.351 310.24 617.291 310.97C624.246 316.341 630.615 322.432 636.291 329.14C636.921 326.89 640.691 327.05 641.611 324.9C641.828 324.285 641.896 323.627 641.811 322.98C641.62 319.611 641.138 316.266 640.371 312.98C640.068 311.288 639.384 309.688 638.371 308.3C636.971 306.61 634.791 305.8 632.711 305.1C629.561 304 623.311 302.45 620.111 304.38Z" fill="#323444"/>
<path d="M607.611 312.24C604.611 314.46 601.981 317.24 598.611 318.76C596.231 319.84 593.521 320.31 591.441 321.92C592.571 324.41 595.511 325.7 598.241 325.6C600.973 325.331 603.592 324.371 605.851 322.81C607.641 321.71 609.741 320.43 611.691 321.2C611.991 322.72 610.691 324.15 610.691 325.69C610.691 327.23 611.971 328.35 613.231 329.16C619.231 333.03 626.951 332.71 634.101 332.26C634.511 332.275 634.915 332.156 635.251 331.92C635.406 331.739 635.524 331.529 635.598 331.303C635.671 331.076 635.7 330.837 635.681 330.6C635.771 329.02 635.811 327.45 635.821 325.87C636.023 324.596 635.858 323.291 635.344 322.108C634.83 320.924 633.99 319.912 632.921 319.19C629.041 315.855 624.856 312.892 620.421 310.34C616.021 307.79 611.561 309.3 607.611 312.24Z" fill="#FBB3B2"/>
<path d="M582.121 125.11C577.681 125.64 574.451 129.11 574.901 132.88C575.351 136.65 579.311 139.25 583.751 138.71C588.191 138.17 591.421 134.71 590.971 130.95C590.521 127.19 586.561 124.58 582.121 125.11ZM583.631 137.67C579.871 138.12 576.521 135.91 576.131 132.73C575.741 129.55 578.491 126.61 582.241 126.16C585.991 125.71 589.351 127.92 589.741 131.1C590.131 134.28 587.381 137.22 583.631 137.67Z" fill="#3C354C"/>
<path d="M560.481 127.71C556.041 128.24 552.811 131.71 553.261 135.47C553.711 139.23 557.671 141.84 562.111 141.31C566.551 140.78 569.781 137.31 569.331 133.54C568.881 129.77 564.921 127.18 560.481 127.71ZM561.991 140.26C558.231 140.71 554.881 138.5 554.501 135.33C554.121 132.16 556.851 129.21 560.611 128.75C564.371 128.29 567.721 130.51 568.101 133.69C568.481 136.87 565.741 139.81 561.991 140.26Z" fill="#3C354C"/>
<path d="M544.411 129.64L554.061 131.7L553.111 134.24L544.011 131.57L544.411 129.64Z" fill="#3C354C"/>
<path d="M598.201 123.18L589.301 127.47L590.831 129.71L599.041 124.96L598.201 123.18Z" fill="#3C354C"/>
<path d="M568.441 131.06L575.211 130.25L574.861 131.93L569.051 132.32L568.441 131.06Z" fill="#3C354C"/>
<path d="M555.311 128.79C555.948 127.42 556.289 125.931 556.311 124.42C556.335 123.516 556.49 122.62 556.771 121.76C557.263 120.668 558.01 119.711 558.951 118.97C562.071 116.33 566.541 114.97 570.951 114.78C575.76 114.559 580.543 115.593 584.831 117.78C586.141 118.394 587.314 119.264 588.281 120.34C589.681 122.05 589.981 124.26 591.391 125.95C592.353 126.975 593.564 127.735 594.906 128.156C596.248 128.576 597.676 128.643 599.051 128.35C599.541 126.61 598.901 124.77 599.151 122.99C599.545 121.465 600.077 119.979 600.741 118.55C602.291 113.98 600.031 108.68 595.371 105.95C593.741 104.95 591.811 104.3 590.591 102.95C589.371 101.6 589.081 100.2 588.241 98.85C586.011 95.28 580.241 93.61 575.851 95.26C574.471 95.78 573.251 96.57 571.851 97.13C569.251 98.2 566.291 98.39 563.431 98.75C560.612 99.0106 557.855 99.7336 555.271 100.89C552.801 102.11 550.731 104.07 550.161 106.41C549.891 107.49 549.951 108.61 549.681 109.68C548.301 115.11 539.391 117.75 538.891 123.29C538.711 125.29 539.801 127.21 541.161 128.84C542.101 129.95 544.351 132.92 545.941 133.35C547.531 133.78 548.741 132.27 550.261 131.75C552.661 131 554.111 130.84 555.311 128.79Z" fill="#CBCEDA"/>
<path d="M708.393 519.755C708.393 557.455 732.047 587.969 761.276 587.969L708.393 519.755Z" fill="#46455B"/>
<path d="M757.277 586.526C757.277 548.396 783.677 517.546 816.299 517.546L757.277 586.526Z" fill="#6C63FF"/>
<path d="M727.559 523.177C727.559 558.995 742.643 587.977 761.276 587.977L727.559 523.177Z" fill="#6C63FF"/>
<path d="M165.001 536.615C165.001 563.415 181.795 585.061 202.555 585.061L165.001 536.615Z" fill="#46455B"/>
<path d="M178.607 539.053C178.607 564.509 189.325 585.074 202.555 585.074L178.607 539.053Z" fill="#6C63FF"/>
<path d="M202.555 585.06C202.555 557.049 220.1 534.379 241.777 534.379L202.555 585.06Z" fill="#46455B"/>
<path d="M829.491 585.074H109.988V587.978H829.491V585.074Z" fill="#3F3D56"/>
</g>
<defs>
<clipPath id="clip0_204_12973">
<rect width="829.491" height="591.977" fill="white"/>
</clipPath>
</defs>
</svg>